<svg width="200" height="100" viewBox="0 0 200 100" fill="none" xmlns="http://www.w3.org/2000/svg">
<rect width="200" height="100" fill="#18181B"/>
<path d="M30.5454 7.08105L108.498 9.80322L107.974 24.7941L30.0219 22.0719L30.5454 7.08105Z" fill="#27272A" stroke="#E4E4E7" stroke-width="1.875"/>
<path d="M107.974 24.7939L30.022 22.0718L27.5092 94.0279L105.462 96.7501L105.734 88.9548" stroke="#E4E4E7" stroke-width="1.875"/>
<path d="M37.2579 70.5038L34.8459 54.3598L30.022 22.0718L108.079 24.7976L117.727 89.3736L39.6698 86.6478L38.4639 78.5758" stroke="#E4E4E7" stroke-width="1.875" stroke-linecap="round" stroke-linejoin="round"/>
<path d="M37.6079 28.3403L52.1785 28.8491L53.9789 40.9193L39.4083 40.4105L37.6079 28.3403Z" fill="#DC2626"/>
<path d="M43.1157 58.8512L41.5854 48.5915L54.3265 49.0364L55.8569 59.2961L43.1157 58.8512Z" fill="#27272A" stroke="#18181B" stroke-width="1.8" stroke-linecap="round" stroke-linejoin="round"/>
<path d="M46.0434 78.1656L44.5131 67.906L57.2543 68.3509L58.7846 78.6105L46.0434 78.1656Z" fill="#27272A" stroke="#18181B" stroke-width="1.8" stroke-linecap="round" stroke-linejoin="round"/>
<path d="M64.1733 40.3751L62.643 30.1154L75.3842 30.5604L76.9145 40.82L64.1733 40.3751Z" fill="#27272A" stroke="#18181B" stroke-width="1.8" stroke-linecap="round" stroke-linejoin="round"/>
<path d="M67.1011 59.6886L65.5707 49.4289L78.3119 49.8738L79.8422 60.1335L67.1011 59.6886Z" fill="#27272A" stroke="#18181B" stroke-width="1.8" stroke-linecap="round" stroke-linejoin="round"/>
<path d="M70.0288 79.0025L68.4985 68.7429L81.2396 69.1878L82.77 79.4475L70.0288 79.0025Z" fill="#27272A" stroke="#18181B" stroke-width="1.8" stroke-linecap="round" stroke-linejoin="round"/>
<path d="M88.1587 41.2125L86.6284 30.9528L99.3695 31.3978L100.9 41.6574L88.1587 41.2125Z" fill="#27272A" stroke="#18181B" stroke-width="1.8" stroke-linecap="round" stroke-linejoin="round"/>
<path d="M91.0864 60.5265L89.5561 50.2668L102.297 50.7117L103.828 60.9714L91.0864 60.5265Z" fill="#27272A" stroke="#18181B" stroke-width="1.8" stroke-linecap="round" stroke-linejoin="round"/>
<path d="M136.556 20.4364L140.994 52.0174C141.045 52.3564 141.01 52.7027 140.891 53.0243C140.772 53.3459 140.574 53.6323 140.316 53.8571L137.769 56.1155C137.523 56.3354 137.227 56.4928 136.907 56.5746C136.587 56.6564 136.252 56.66 135.93 56.5853C135.608 56.5107 135.309 56.3598 135.058 56.1454C134.806 55.931 134.61 55.6593 134.486 55.3533L129.214 42.2959" fill="#18181B"/>
<path d="M129.214 42.2961C126.506 42.6768 123.757 41.9659 121.573 40.3199C119.389 38.6739 117.948 36.2277 117.567 33.5192C117.186 30.8108 117.897 28.0621 119.543 25.8778C121.189 23.6935 123.635 22.2525 126.344 21.8719L136.556 20.4366C136.556 20.4366 150.47 18.4812 162.273 5.39319C162.536 5.10514 162.875 4.89755 163.251 4.79451C163.627 4.69147 164.025 4.69719 164.398 4.81102C164.771 4.92485 165.104 5.14211 165.359 5.43761C165.613 5.73311 165.779 6.09472 165.836 6.4805L171.419 46.2057C171.47 46.5924 171.411 46.9856 171.248 47.3398C171.084 47.694 170.824 47.9947 170.497 48.2069C170.17 48.4192 169.789 48.5343 169.399 48.5389C169.009 48.5436 168.626 48.4375 168.294 48.2331C153.341 38.9054 139.427 40.8609 139.427 40.8609L129.214 42.2961Z" fill="#18181B" stroke="#E4E4E7" stroke-width="1.875" stroke-linecap="round" stroke-linejoin="round"/>
<path d="M136.556 20.4364L140.994 52.0174C141.045 52.3564 141.01 52.7027 140.891 53.0243C140.772 53.3459 140.574 53.6323 140.316 53.8571L137.769 56.1155C137.523 56.3354 137.227 56.4928 136.907 56.5746C136.587 56.6564 136.252 56.66 135.93 56.5853C135.608 56.5106 135.309 56.3597 135.058 56.1453C134.806 55.9309 134.61 55.6593 134.486 55.3533L129.214 42.2959" stroke="#E4E4E7" stroke-width="1.875" stroke-linecap="round" stroke-linejoin="round"/>
<path d="M169.488 32.4705C173.098 31.9632 175.613 28.6258 175.106 25.0162C174.598 21.4065 171.261 18.8916 167.651 19.3989L169.488 32.4705Z" fill="#18181B" stroke="#E4E4E7" stroke-width="1.875" stroke-linecap="round" stroke-linejoin="round"/>
<path d="M182.912 24.1143C182.739 22.8838 183.597 21.746 184.827 21.5731L193.74 20.3205C194.97 20.1476 196.108 21.0049 196.281 22.2355C196.454 23.466 195.596 24.6038 194.366 24.7767L185.454 26.0293C184.223 26.2022 183.085 25.3449 182.912 24.1143Z" fill="#DC2626"/>
<path d="M180.99 33.9542C181.738 32.9617 183.149 32.7635 184.141 33.5113L191.329 38.9276C192.322 39.6755 192.52 41.0862 191.772 42.0787C191.024 43.0711 189.613 43.2693 188.621 42.5215L181.433 37.1052C180.441 36.3573 180.243 34.9466 180.99 33.9542Z" fill="#DC2626"/>
<path d="M178.353 15.1851C177.36 14.4373 177.162 13.0265 177.91 12.0341L183.326 4.8464C184.074 3.85399 185.485 3.65572 186.477 4.40356C187.47 5.1514 187.668 6.56216 186.92 7.55457L181.504 14.7423C180.756 15.7347 179.345 15.933 178.353 15.1851Z" fill="#DC2626"/>
</svg>
