<svg width="336" height="144" viewBox="0 0 336 144" fill="none" xmlns="http://www.w3.org/2000/svg">
    <mask id="2tx5uikb5b" style="mask-type:alpha" maskUnits="userSpaceOnUse" x="0" y="0" width="336" height="144">
        <path fill="url(#3z60494pqa)" d="M0 0h336v144H0z"/>
    </mask>
    <g mask="url(#2tx5uikb5b)">
        <path stroke="#27272A" d="M48 96h24v24H48zM72 96h24v24H72zM48 120h24v24H48zM72 120h24v24H72zM0 96h24v24H0zM24 96h24v24H24zM0 120h24v24H0zM24 120h24v24H24zM96 96h24v24H96zM120 96h24v24h-24zM96 120h24v24H96zM120 120h24v24h-24zM144 96h24v24h-24zM168 96h24v24h-24zM144 120h24v24h-24zM168 120h24v24h-24zM192 96h24v24h-24zM216 96h24v24h-24zM192 120h24v24h-24zM216 120h24v24h-24zM240 96h24v24h-24zM264 96h24v24h-24zM240 120h24v24h-24zM264 120h24v24h-24zM288 96h24v24h-24zM312 96h24v24h-24zM288 120h24v24h-24zM312 120h24v24h-24zM48 48h24v24H48zM72 48h24v24H72zM48 72h24v24H48zM72 72h24v24H72zM0 48h24v24H0zM24 48h24v24H24zM0 72h24v24H0zM24 72h24v24H24zM96 48h24v24H96zM120 48h24v24h-24zM96 72h24v24H96zM120 72h24v24h-24zM144 48h24v24h-24zM168 48h24v24h-24zM144 72h24v24h-24zM168 72h24v24h-24zM192 48h24v24h-24zM216 48h24v24h-24zM192 72h24v24h-24zM216 72h24v24h-24zM240 48h24v24h-24zM264 48h24v24h-24zM240 72h24v24h-24zM264 72h24v24h-24zM288 48h24v24h-24zM312 48h24v24h-24zM288 72h24v24h-24zM312 72h24v24h-24zM48 0h24v24H48zM72 0h24v24H72zM48 24h24v24H48zM72 24h24v24H72zM0 0h24v24H0zM24 0h24v24H24zM0 24h24v24H0zM24 24h24v24H24zM96 0h24v24H96zM120 0h24v24h-24zM96 24h24v24H96zM120 24h24v24h-24zM144 0h24v24h-24zM168 0h24v24h-24zM144 24h24v24h-24zM168 24h24v24h-24zM192 0h24v24h-24zM216 0h24v24h-24zM192 24h24v24h-24zM216 24h24v24h-24zM240 0h24v24h-24zM264 0h24v24h-24zM240 24h24v24h-24zM264 24h24v24h-24zM288 0h24v24h-24zM312 0h24v24h-24zM288 24h24v24h-24zM312 24h24v24h-24z"/>
        <path fill-rule="evenodd" clip-rule="evenodd" d="M239.75 120a.75.75 0 0 1 .75-.75h24a.75.75 0 0 1 0 1.5h-24a.75.75 0 0 1-.75-.75z" fill="url(#p6l0xc7kec)"/>
        <path fill-rule="evenodd" clip-rule="evenodd" d="M175.75 96a.75.75 0 0 1 .75-.75h16a.75.75 0 0 1 0 1.5h-16a.75.75 0 0 1-.75-.75z" fill="url(#cjhzd95o3d)"/>
        <path fill-rule="evenodd" clip-rule="evenodd" d="M47.75 120a.75.75 0 0 1 .75-.75h48a.75.75 0 0 1 0 1.5h-48a.75.75 0 0 1-.75-.75z" fill="url(#32emzfv02e)"/>
        <path fill-rule="evenodd" clip-rule="evenodd" d="M280.25 96a.75.75 0 0 1 .75-.75h32a.75.75 0 0 1 0 1.5h-32a.75.75 0 0 1-.75-.75z" fill="url(#6fiuwfqtif)"/>
    </g>
    <defs>
        <linearGradient id="p6l0xc7kec" x1="240.5" y1="120.5" x2="264.5" y2="120.5" gradientUnits="userSpaceOnUse">
            <stop stop-color="#52525B" stop-opacity="0"/>
            <stop offset=".9" stop-color="#52525B"/>
            <stop offset="1" stop-color="#848490"/>
        </linearGradient>
        <linearGradient id="cjhzd95o3d" x1="176.5" y1="96.5" x2="192.5" y2="96.5" gradientUnits="userSpaceOnUse">
            <stop stop-color="#52525B" stop-opacity="0"/>
            <stop offset=".9" stop-color="#52525B"/>
            <stop offset="1" stop-color="#848490"/>
        </linearGradient>
        <linearGradient id="32emzfv02e" x1="48.5" y1="120.5" x2="96.5" y2="120.5" gradientUnits="userSpaceOnUse">
            <stop stop-color="#52525B" stop-opacity="0"/>
            <stop offset=".9" stop-color="#52525B"/>
            <stop offset="1" stop-color="#848490"/>
        </linearGradient>
        <linearGradient id="6fiuwfqtif" x1="281" y1="96.5" x2="313" y2="96.5" gradientUnits="userSpaceOnUse">
            <stop stop-color="#52525B" stop-opacity="0"/>
            <stop offset=".9" stop-color="#52525B"/>
            <stop offset="1" stop-color="#848490"/>
        </linearGradient>
        <radialGradient id="3z60494pqa" cx="0" cy="0" r="1" gradientUnits="userSpaceOnUse" gradientTransform="matrix(1 -197.50047 495.12365 2.50693 335 146)">
            <stop offset=".5"/>
            <stop offset=".75" stop-opacity="0"/>
        </radialGradient>
    </defs>
</svg>
